<?xml version="1.0" standalone="no"?>
<!DOCTYPE svg PUBLIC "-//W3C//DTD SVG 20010904//EN"
 "http://www.w3.org/TR/2001/REC-SVG-20010904/DTD/svg10.dtd">
<svg version="1.0" xmlns="http://www.w3.org/2000/svg"
 width="1080.000000pt" height="1080.000000pt" viewBox="0 0 1080.000000 1080.000000"
 preserveAspectRatio="xMidYMid meet">
<metadata>
Created by potrace 1.14, written by Peter Selinger 2001-2017
</metadata>
<g transform="translate(0.000000,1080.000000) scale(0.100000,-0.100000)"
fill="#000000" stroke="none">
<path d="M0 5400 l0 -5400 5400 0 5400 0 0 5400 0 5400 -5400 0 -5400 0 0
-5400z m3765 714 c39 -18 43 -27 162 -307 51 -121 40 -241 -26 -280 -58 -34
-441 -17 -627 28 -117 29 -171 31 -269 10 -144 -31 -270 -113 -350 -230 -21
-30 -41 -53 -43 -50 -8 7 -32 174 -32 221 0 38 7 49 76 125 108 120 150 177
189 258 19 39 39 71 44 71 16 0 101 -102 162 -194 58 -87 59 -88 69 -62 16 44
11 140 -15 279 l-7 37 50 0 51 0 43 -82 c23 -46 68 -117 99 -158 59 -78 119
-141 119 -124 0 5 -7 81 -15 169 -21 230 -22 221 22 230 21 4 51 14 68 23 44
23 136 51 168 51 16 1 44 -6 62 -15z m117 -752 c8 -8 5 -30 -13 -82 l-24 -70
-42 0 -42 0 -3 63 -3 62 -46 3 c-25 2 -57 -1 -71 -7 -23 -8 -26 -17 -32 -75
-7 -64 -8 -65 -64 -107 -86 -65 -150 -127 -199 -193 -36 -49 -43 -65 -43 -106
0 -160 80 -323 182 -372 201 -97 212 -100 289 -73 70 25 258 181 299 248 17
28 18 27 24 -100 4 -70 9 -165 12 -210 l6 -81 -75 -17 c-42 -9 -81 -14 -87
-10 -6 3 -22 29 -36 57 -24 47 -27 50 -57 44 -18 -3 -102 -9 -187 -12 -164 -7
-245 2 -309 33 -72 36 -70 31 -91 429 -15 307 -16 362 -4 385 14 27 114 99
189 136 48 24 125 50 186 63 57 12 227 6 241 -8z m-1028 -198 c91 -72 119 -84
61 -24 -38 39 -38 40 -15 40 28 0 146 -53 174 -78 33 -31 48 -75 54 -159 2
-46 2 -83 -2 -83 -3 0 -27 15 -53 34 -27 19 -88 57 -137 86 -49 29 -110 74
-134 99 -52 53 -102 151 -102 199 l0 32 37 -41 c20 -22 73 -70 117 -105z
m-202 -162 c34 -67 95 -106 209 -136 125 -33 199 -67 236 -109 27 -31 31 -44
37 -122 4 -48 5 -89 2 -92 -6 -6 -248 125 -346 188 -41 26 -89 63 -107 81 -74
77 -111 209 -82 294 l13 39 7 -49 c4 -27 18 -69 31 -94z m1203 98 c63 -31 124
-92 156 -155 20 -43 24 -64 24 -145 0 -80 -4 -102 -23 -138 -36 -67 -98 -129
-161 -159 -47 -23 -70 -27 -141 -28 -71 0 -94 4 -140 26 -80 37 -125 81 -162
157 -29 59 -33 76 -33 147 1 96 22 151 86 220 73 80 138 105 259 102 67 -2 96
-7 135 -27z m515 -710 l0 -109 -87 6 c-49 3 -89 6 -89 7 -1 0 1 44 5 96 l6 95
40 6 c22 3 59 7 83 8 l42 1 0 -110z m-1243 -21 c15 -58 18 -81 10 -84 -11 -3
-166 -35 -172 -35 -1 0 -8 35 -15 77 -6 42 -14 82 -17 88 -2 8 18 16 59 22
120 19 111 24 135 -68z m-310 -85 c81 -69 224 -164 318 -211 121 -62 182 -80
290 -87 55 -3 143 -13 195 -22 158 -27 352 -5 509 57 63 25 79 28 105 19 39
-13 116 -88 116 -112 0 -20 -94 -191 -113 -206 -14 -12 -425 -32 -634 -32
l-142 0 -41 74 c-40 73 -42 75 -114 105 -114 47 -277 104 -300 103 -11 0 -50
-12 -84 -26 l-64 -27 -46 30 c-81 52 -172 156 -172 196 0 37 86 195 106 195 3
0 34 -25 71 -56z m580 14 c27 -10 33 -17 31 -37 -3 -23 2 -27 47 -37 79 -19
105 -17 105 6 0 19 7 20 98 20 53 0 123 6 155 14 l58 14 13 -32 c28 -69 58
-168 51 -174 -4 -4 -84 -7 -178 -6 -197 1 -298 18 -392 65 -89 43 -116 69
-122 116 -5 40 -5 41 33 51 53 14 63 14 101 0z m-608 -363 l73 -59 84 28 84
29 132 -48 c192 -70 183 -64 227 -160 l39 -83 45 -7 c25 -4 105 -5 178 -3
l134 3 3 -27 c3 -22 -2 -28 -30 -37 -65 -21 -196 -34 -363 -35 -167 -1 -172 0
-262 31 -170 59 -404 195 -456 264 -54 73 -79 161 -63 224 l7 27 47 -44 c26
-24 80 -70 121 -103z m1882 34 c33 -33 22 -118 -29 -219 l-39 -79 28 -52 c53
-96 98 -141 278 -279 l32 -25 -46 -190 c-44 -180 -46 -196 -42 -295 5 -115 34
-212 67 -230 33 -18 60 -74 60 -125 l0 -48 -45 45 c-65 66 -102 68 -152 9 -17
-20 -22 -22 -23 -9 0 26 -48 76 -84 88 -42 14 -79 1 -127 -46 l-35 -34 -22 53
c-35 84 -119 115 -199 73 -39 -19 -39 -18 -13 34 29 57 35 118 17 162 -8 20
-13 39 -9 42 3 3 24 6 46 6 23 0 65 3 94 6 l52 7 0 79 c0 44 7 108 16 142 20
74 22 216 4 271 -8 25 -38 66 -80 110 -37 39 -74 84 -83 100 -15 30 -15 32 31
106 78 125 201 297 219 308 29 17 61 13 84 -10z m4291 -249 c316 -330 427
-469 511 -635 92 -184 90 -346 -5 -418 -18 -14 -44 -30 -56 -34 -22 -9 -23
-14 -26 -133 -3 -167 -35 -238 -128 -293 -91 -53 -163 -69 -283 -65 -131 5
-215 31 -336 104 -124 75 -197 140 -205 180 -14 75 23 146 102 195 l35 21 32
-26 c144 -119 269 -159 389 -126 37 11 108 78 108 103 0 8 -26 21 -62 31 -81
22 -210 83 -293 137 -77 51 -82 70 -34 142 66 100 91 100 256 2 70 -41 128
-73 131 -71 9 10 -30 106 -75 181 -91 157 -299 409 -447 541 -43 38 -66 67
-66 81 0 26 43 79 79 98 27 14 29 13 122 -83 258 -264 437 -497 555 -725 l62
-120 17 27 c60 91 -128 368 -564 833 l-152 163 18 31 c16 28 90 82 104 76 3
-1 98 -99 211 -217z m-4647 -240 c33 -34 76 -72 97 -86 52 -36 63 -69 49 -146
-5 -35 -13 -83 -17 -108 -9 -64 -42 -149 -62 -159 -9 -5 -44 -12 -77 -15 -80
-10 -93 -14 -105 -37 -8 -15 -6 -30 11 -67 40 -90 41 -100 13 -185 -14 -43
-32 -81 -40 -84 -8 -3 -45 24 -89 65 -41 39 -99 82 -127 96 -128 64 -235 6
-283 -153 -10 -33 -21 -61 -24 -61 -3 0 -21 9 -39 20 -48 30 -95 134 -95 210
1 69 16 101 87 180 51 57 66 90 66 149 0 25 30 69 48 72 4 1 68 3 142 5 74 1
155 7 179 11 l45 8 17 97 c17 95 54 195 86 230 28 31 56 21 118 -42z m4257
-197 c170 -172 218 -226 218 -246 0 -3 -20 -15 -45 -27 -56 -27 -99 -78 -115
-136 -11 -39 -14 -42 -32 -33 -23 12 -488 468 -488 478 0 4 20 13 45 20 44 13
167 92 194 125 7 9 16 16 20 16 3 0 95 -89 203 -197z m-468 -188 c61 -60 170
-156 241 -213 169 -134 207 -169 203 -189 -2 -9 -23 -28 -47 -42 -65 -38 -98
-85 -119 -169 l-18 -73 -64 43 c-69 45 -345 314 -449 437 l-63 74 6 66 c9 87
48 165 105 209 l44 33 25 -33 c14 -18 75 -82 136 -143z m-4179 -424 c59 -27
177 -147 208 -212 55 -111 57 -253 7 -367 -25 -55 -216 -261 -295 -317 -185
-130 -466 -218 -785 -246 -234 -20 -670 -2 -900 39 -45 7 -43 8 175 80 553
182 967 387 1182 587 94 87 186 209 208 277 28 85 64 145 99 162 40 20 52 20
101 -3z m3048 -124 c62 -37 148 -134 188 -215 119 -240 300 -409 580 -541 246
-116 638 -222 912 -247 42 -4 77 -10 77 -14 0 -11 -122 -73 -214 -110 -146
-58 -264 -81 -441 -87 -134 -4 -180 -2 -281 15 -387 67 -800 304 -1145 659
-124 127 -159 186 -159 267 0 73 12 102 68 159 58 60 120 104 181 129 67 27
174 20 234 -15z m-2547 -56 c75 -34 114 -116 114 -238 l0 -64 -102 3 -102 3
-20 35 c-17 29 -21 52 -21 133 0 96 1 99 28 123 34 29 49 29 103 5z m291 -28
c12 -18 18 -46 18 -83 0 -46 -5 -65 -29 -98 -21 -30 -27 -50 -24 -72 5 -30 4
-31 -31 -28 -30 3 -39 10 -58 43 -29 52 -30 133 -2 194 28 63 37 71 75 71 25
0 38 -7 51 -27z m197 -35 c20 -28 22 -184 4 -224 -11 -24 -16 -26 -53 -21 -23
4 -53 11 -68 16 -25 10 -27 15 -27 70 0 68 11 102 46 148 31 40 74 45 98 11z
m162 -69 c19 -62 17 -85 -7 -108 -16 -15 -20 -28 -17 -56 3 -27 1 -35 -10 -33
-31 6 -56 57 -60 123 -4 61 -3 66 27 95 17 18 36 30 43 28 6 -2 17 -24 24 -49z
m-782 -519 c30 -36 87 -102 129 -147 88 -95 110 -132 110 -187 0 -71 -80 -117
-228 -132 -100 -10 -109 -5 -134 73 -55 173 -54 371 4 508 l16 39 25 -44 c14
-25 49 -74 78 -110z m2216 8 c44 -54 86 -141 99 -206 19 -90 9 -317 -14 -340
-10 -11 -199 42 -257 71 -61 31 -63 33 -66 74 -4 55 16 91 77 142 61 51 89
118 98 232 7 88 12 90 63 27z m-1770 -172 c0 -7 3 -34 6 -60 6 -44 6 -46 -18
-46 -35 0 -48 18 -48 66 0 44 -1 43 53 53 4 0 7 -5 7 -13z m-95 -72 c6 -58 5
-62 -20 -82 -15 -12 -31 -19 -35 -17 -5 3 -12 30 -16 61 -6 52 -5 57 22 85 15
16 31 26 35 22 4 -5 10 -36 14 -69z m1424 4 c20 -7 22 -13 17 -39 -3 -18 -6
-38 -6 -45 0 -19 -36 -18 -69 2 -26 16 -27 18 -18 60 11 47 10 47 76 22z m143
-109 c-2 -24 -5 -46 -7 -48 -2 -2 -23 4 -47 14 -42 15 -44 18 -40 53 6 63 7
63 54 43 42 -18 43 -19 40 -62z"/>
<path d="M3604 5031 c-166 -75 -202 -288 -69 -410 102 -94 254 -90 354 10 45
44 62 83 68 151 14 147 -100 268 -252 268 -37 0 -76 -8 -101 -19z"/>
<path d="M3738 4233 c-49 -2 -88 -7 -88 -11 0 -4 3 -17 6 -29 6 -22 12 -23 93
-23 117 0 131 5 122 38 -8 30 -6 30 -133 25z"/>
<path d="M2996 3847 c-29 -13 -26 -14 139 -82 92 -39 172 -71 177 -73 10 -4
10 39 0 55 -10 16 -239 113 -265 113 -12 -1 -35 -7 -51 -13z"/>
</g>
</svg>
