<svg width="128" height="128" fill="none" xmlns="http://www.w3.org/2000/svg">
  <mask id="a" style="mask-type:alpha" maskUnits="userSpaceOnUse" x="4" y="4" width="120" height="120">
    <path d="M64 124c33.137 0 60-26.863 60-60S97.137 4 64 4 4 30.863 4 64s26.863 60 60 60Z" fill="#0535C1"/>
  </mask>
  <g mask="url(#a)">
    <path d="M64 124c33.137 0 60-26.863 60-60S97.137 4 64 4 4 30.863 4 64s26.863 60 60 60Z" fill="#06F"/>
    <path d="M94 60.25c-5.523 0-10-4.477-10-10s4.477-10 10-10c5.207 0 9.484 3.98 9.957 9.063.048.516.463.937.981.937H109a5 5 0 0 1 0 10H94Z" fill="#5DBCEB"/>
    <path d="M63.503 14.31 44.441 26.225a.938.938 0 0 0-.441.795v19.793c0 .517-.42.937-.938.937h-8.124a.937.937 0 0 0-.938.938v10.624c0 .518.42.938.938.938h7.989c.568 0 1.005.5.929 1.063l-9.712 71.624a.937.937 0 0 0 .93 1.063h57.853a.937.937 0 0 0 .929-1.063l-9.712-71.624a.937.937 0 0 1 .93-1.063h7.989c.517 0 .937-.42.937-.938V48.688a.937.937 0 0 0-.938-.938h-8.124a.938.938 0 0 1-.938-.938V27.02a.938.938 0 0 0-.44-.795L64.496 14.31a.938.938 0 0 0-.994 0Z" fill="#F63"/>
    <path d="m36.315 116.926 2.643-19.489 46.904-23.452 2.307 17.014-51.854 25.927ZM82.168 134H45.832l45.11-22.555 2.307 17.015L82.168 134ZM69.668 60.25 42.133 74.017 44 60.25h25.668Z" fill="#FFA385"/>
    <path d="M56.5 34c0-.69.56-1.25 1.25-1.25h12.5c.69 0 1.25.56 1.25 1.25v12.5c0 .69-.56 1.25-1.25 1.25h-12.5c-.69 0-1.25-.56-1.25-1.25V34Z" fill="#FF3"/>
    <path d="M24 74c-5.523 0-10-4.477-10-10s4.477-10 10-10a9.997 9.997 0 0 1 8.726 5.112c.374.666 1.047 1.138 1.81 1.138H44A6.875 6.875 0 1 1 44 74H24Z" fill="#fff"/>
  </g>
</svg>
